Coordinates
version=1
nRows=14
nColumns=28
inDegrees=yes

Units are S.I. units (second, meters, Newtons, ...)
Angles are in degrees.

endheader
time	pelvis_tilt	pelvis_list	pelvis_rotation	pelvis_tx	pelvis_ty	pelvis_tz	hip_flexion_r	hip_adduction_r	hip_rotation_r	knee_angle_r	ankle_angle_r	subtalar_angle_r	mtp_angle_r	hip_flexion_l	hip_adduction_l	hip_rotation_l	knee_angle_l	socket_flexion	socket_adduction	socket_rotation	socket_tx	socket_ty	socket_tz	foot_flex	lumbar_extension	lumbar_bending	lumbar_rotation
      0.00000000	      3.45541979	    -13.57052436	    -15.72803417	     -0.76913044	      1.00566206	      0.27727311	    -26.43327642	      9.91183998	      5.73420015	     -8.02070315	     -2.05792524	      0.56045169	     37.80871763	     18.06603709	    -19.28735449	      7.33697613	     -5.41904464	      0.00000000	      0.00000000	      0.00000000	      0.00000000	     -0.01562511	      0.00000000	      0.01273726	    -19.72825830	      9.59736782	     21.17106385
      0.00416667	      3.42067633	    -13.58464644	    -15.72029373	     -0.76391175	      1.00467022	      0.27676368	    -26.58750374	      9.82147624	      5.79833450	     -8.15113616	     -2.08441171	      0.57203274	     37.81515539	     18.00452919	    -19.22149229	      7.37054818	     -5.61539460	      0.00000000	      0.00000000	      0.00000000	      0.00000000	     -0.01596630	      0.00000000	     -0.13146809	    -19.62928074	      9.64720916	     21.17940610
      0.00833333	      3.43004032	    -13.57762659	    -15.68649210	     -0.75876694	      1.00372408	      0.27611412	    -26.71169012	      9.71775483	      5.92323015	     -8.42124804	     -2.17106782	      0.57774330	     37.84000764	     17.92439033	    -19.10591174	      7.38797690	     -5.79779076	      0.00000000	      0.00000000	      0.00000000	      0.00000000	     -0.01627631	      0.00000000	     -0.62680284	    -19.66291997	      9.64593864	     21.19839743
      0.01250000	      3.39386155	    -13.59839392	    -15.68163747	     -0.75303609	      1.00266503	      0.27559766	    -26.86668308	      9.62769658	      5.96965303	     -8.60727763	     -2.20309856	      0.57359241	     37.84654582	     17.81327252	    -19.04678997	      7.41721011	     -5.96292133	      0.00000000	      0.00000000	      0.00000000	      0.00000000	     -0.01673718	      0.00000000	     -0.74840231	    -19.54090571	      9.69605793	     21.20304623
      0.01666667	      3.42980541	    -13.59447769	    -15.68178487	     -0.74756640	      1.00176318	      0.27495732	    -26.94622829	      9.50070460	      6.03607298	     -9.05379779	     -2.32468444	      0.52268661	     37.87647068	     17.63796375	    -18.93798823	      7.38189492	     -6.09394600	      0.00000000	      0.00000000	      0.00000000	      0.00000000	     -0.01713350	      0.00000000	     -1.28876135	    -19.60283167	      9.69046070	     21.21936706
      0.02083333	      3.39142443	    -13.61760601	    -15.67960200	     -0.74150068	      1.00066069	      0.27441467	    -27.10154829	      9.40487362	      6.07985250	     -9.26532350	     -2.36107565	      0.51193435	     37.88497062	     17.50070626	    -18.87854871	      7.40759971	     -6.26307429	      0.00000000	      0.00000000	      0.00000000	      0.00000000	     -0.01771180	      0.00000000	     -1.40500243	    -19.47210269	      9.73974929	     21.22478904
      0.02500000	      3.43987512	    -13.60856151	    -15.70483681	     -0.73584962	      0.99980486	      0.27378431	    -27.14708036	      9.25690231	      6.13636014	     -9.81615623	     -2.52536351	      0.42902352	     37.92415787	     17.26695494	    -18.76524269	      7.34640581	     -6.36666172	      0.00000000	      0.00000000	      0.00000000	      0.00000000	     -0.01821223	      0.00000000	     -1.96948445	    -19.55256567	      9.71752798	     21.24713531
      0.02916667	      3.39958418	    -13.63017469	    -15.69401229	     -0.72951781	      0.99871557	      0.27321312	    -27.29427891	      9.16457451	      6.18500063	    -10.05183403	     -2.57233875	      0.41270465	     37.93554354	     17.10219943	    -18.69566602	      7.36218730	     -6.53271568	      0.00000000	      0.00000000	      0.00000000	      0.00000000	     -0.01893206	      0.00000000	     -2.08067116	    -19.41163324	      9.76776313	     21.25535530
      0.03333333	      3.45312706	    -13.61220855	    -15.77003318	     -0.72371116	      0.99793750	      0.27264600	    -27.29378919	      8.98513225	      6.23257384	    -10.70601325	     -2.80988730	      0.28596983	     37.98867398	     16.80385005	    -18.58829523	      7.27387022	     -6.60652360	      0.00000000	      0.00000000	      0.00000000	      0.00000000	     -0.01953254	      0.00000000	     -2.63594496	    -19.50533906	      9.70867425	     21.28794075
      0.03750000	      3.42306321	    -13.62288212	    -15.72898829	     -0.71722520	      0.99692636	      0.27202361	    -27.42774334	      8.89521916	      6.30326114	    -10.99025622	     -2.88231228	      0.26016345	     38.00640358	     16.61619803	    -18.48843678	      7.26359753	     -6.75557475	      0.00000000	      0.00000000	      0.00000000	      0.00000000	     -0.02036552	      0.00000000	     -2.75155478	    -19.35152933	      9.76836958	     21.30430124
      0.04166667	      3.51775788	    -13.56730753	    -15.91883433	     -0.71118908	      0.99636842	      0.27164680	    -27.40657106	      8.61217005	      6.30228650	    -11.74647510	     -3.27158434	     -0.03854236	     38.16929161	     16.15547615	    -18.36705350	      6.92750148	     -6.76725225	      0.00000000	      0.00000000	      0.00000000	      0.00000000	     -0.02102007	      0.00000000	     -3.19902493	    -19.46575185	      9.63674547	     21.43444422
      0.04583333	      3.52260049	    -13.52503582	    -15.91699464	     -0.70501869	      0.99560152	      0.27104875	    -27.46217233	      8.46566779	      6.47736130	    -12.17513482	     -3.47481908	     -0.12216076	     38.24671755	     15.93071432	    -18.21738911	      6.95691647	     -6.91472352	      0.00000000	      0.00000000	      0.00000000	      0.00000000	     -0.02171986	      0.00000000	     -3.47787124	    -19.41087299	      9.56291068	     21.47783853
      0.05000000	      3.52716912	    -13.46982283	    -15.96199609	     -0.69877234	      0.99493700	      0.27051311	    -27.43969755	      8.28731209	      6.55972672	    -12.74345677	     -3.81137543	     -0.31819143	     38.33737499	     15.65273353	    -18.06742979	      6.86233947	     -7.01571540	      0.00000000	      0.00000000	      0.00000000	      0.00000000	     -0.02247416	      0.00000000	     -3.78215709	    -19.35483699	      9.49276688	     21.51625946
      0.05416667	      3.49927423	    -13.45124240	    -15.87434888	     -0.69218544	      0.99417219	      0.26980061	    -27.52036428	      8.20676143	      6.68098360	    -13.08052991	     -3.93998788	     -0.35868806	     38.35928349	     15.45398820	    -17.91538524	      6.87794282	     -7.16067914	      0.00000000	      0.00000000	      0.00000000	      0.00000000	     -0.02339041	      0.00000000	     -3.88857470	    -19.18156618	      9.53655658	     21.52470328
